<?xml version="1.0" encoding="utf-8"?>
<!-- Generator: Adobe Illustrator 28.3.0, SVG Export Plug-In . SVG Version: 6.00 Build 0)  -->
<svg version="1.1" id="Layer_1" xmlns="http://www.w3.org/2000/svg" xmlns:xlink="http://www.w3.org/1999/xlink" x="0px" y="0px"
	 viewBox="0 0 1006.6 128" style="enable-background:new 0 0 1006.6 128;" xml:space="preserve">
<style type="text/css">
	.st0{fill:#232323;}
</style>
<g>
	<path class="st0" d="M0,21.7h28.4v4.7H16.5v97h11.9v4.7H0V21.7z"/>
	<path class="st0" d="M87.5,123.3H37.9v-2.4c13-1.6,13.2-3.3,13.2-17.1V45.9c0-13.8-0.3-15.5-13.2-17.1v-2.4h48.3
		c9.2,0,21.1,0,31.6-0.4l3.2,32h-2.7c-6.7-22.6-15.8-26.8-41.7-26.8h-7.1v39.2h15.7c7.6,0,12.4-3.7,13.8-15h2.4v35.9h-2.4
		c-1.3-11.2-6.2-15-13.8-15H69.4v36.7c0,4.7,0.9,5.8,6.8,5.8h5.1c24.3,0,32.9-5.5,40.1-27.2h2.5l-5.4,32
		C108,123.3,97,123.3,87.5,123.3z M80,17.3h-2.8L88.3,0h21L80,17.3z"/>
	<path class="st0" d="M189,119.1c17.4,0,27.6-11.6,32.2-23.4l3.6,1.2c-4.4,14.3-17.3,28.2-38.7,28.2c-29,0-49.2-20.9-49.2-50.6
		c0-32,23.9-50.8,52.2-50.8c11,0,22.2,2.4,28.9,5.4l3.6,30.1h-2.5c-4.9-18.9-15-30.5-31.6-30.5c-16.5,0-30.1,15.1-30.1,45.9
		C157.4,101.4,168.8,119.1,189,119.1z"/>
	<path class="st0" d="M325.6,103.8c0,13.8,0.3,15.5,13.2,17.1v2.4H294v-2.4c13-1.6,13.2-3.3,13.2-17.1V76.3h-41.3v27.6
		c0,13.8,0.3,15.5,13.2,17.1v2.4h-44.8v-2.4c13-1.6,13.2-3.3,13.2-17.1V45.9c0-13.8-0.3-15.5-13.2-17.1v-2.4h44.8v2.4
		c-13,1.6-13.2,3.3-13.2,17.1v24.5h41.3V45.9c0-13.8-0.3-15.5-13.2-17.1v-2.4h44.8v2.4c-13,1.6-13.2,3.3-13.2,17.1V103.8z"/>
	<path class="st0" d="M401.4,23.7c26.2,0,51,17.7,51,50.7c0,33-24.7,50.7-51,50.7s-51-17.7-51-50.7
		C350.5,41.3,375.2,23.7,401.4,23.7z M401.4,28.6c-18.5,0-30.5,17.5-30.5,45.8c0,28.2,12,45.8,30.5,45.8s30.5-17.5,30.5-45.8
		C431.9,46.2,419.9,28.6,401.4,28.6z"/>
	<path class="st0" d="M622,28.8c-13,1.6-13.2,3.3-13.2,17.1v57.9c0,13.8,0.3,15.5,13.2,17.1v2.4h-44.8v-2.4
		c13-1.6,13.2-3.3,13.2-17.1V39.2l-33.7,80.4h-4l-35.9-82.4v66.6c0,13.8,0.3,15.5,13.2,17.1v2.4h-32.8v-2.4
		c13-1.6,13.2-3.3,13.2-17.1V45.9c0-13.8-0.3-15.5-13.2-17.1v-2.4h35.2l28.2,65.8l27.7-65.8H622V28.8z"/>
	<path class="st0" d="M681.3,123.3h-49.6v-2.4c13-1.6,13.2-3.3,13.2-17.1V45.9c0-13.8-0.3-15.5-13.2-17.1v-2.4H680
		c9.2,0,21.1,0,31.6-0.4l3.2,32h-2.7c-6.7-22.6-15.8-26.8-41.7-26.8h-7.1v39.2h15.7c7.6,0,12.4-3.7,13.8-15h2.4v35.9h-2.4
		c-1.3-11.2-6.2-15-13.8-15h-15.7v36.7c0,4.7,0.9,5.8,6.8,5.8h5.1c24.3,0,32.9-5.5,40.1-27.2h2.5l-5.4,32
		C701.8,123.3,690.8,123.3,681.3,123.3z M673.8,17.3H671L682.1,0h21L673.8,17.3z"/>
	<path class="st0" d="M853.6,28.8c-13,1.6-13.2,3.3-13.2,17.1v57.9c0,13.8,0.3,15.5,13.2,17.1v2.4h-44.8v-2.4
		c13-1.6,13.2-3.3,13.2-17.1V39.2l-33.7,80.4h-4l-35.9-82.4v66.6c0,13.8,0.3,15.5,13.2,17.1v2.4h-32.8v-2.4
		c13-1.6,13.2-3.3,13.2-17.1V45.9c0-13.8-0.3-15.5-13.2-17.1v-2.4h35.2l28.2,65.8L820,26.4h33.6V28.8z"/>
	<path class="st0" d="M916.1,23.7c26.2,0,51,17.7,51,50.7c0,33-24.7,50.7-51,50.7s-51-17.7-51-50.7
		C865.1,41.3,889.9,23.7,916.1,23.7z M916.1,28.6c-18.5,0-30.5,17.5-30.5,45.8c0,28.2,12,45.8,30.5,45.8s30.5-17.5,30.5-45.8
		C946.6,46.2,934.5,28.6,916.1,28.6z"/>
	<path class="st0" d="M1006.6,128h-28.2v-4.7h11.8v-97h-11.8v-4.7h28.2V128z"/>
</g>
</svg>
