<?xml version="1.0" encoding="utf-8"?>
<!-- Generator: Adobe Illustrator 28.3.0, SVG Export Plug-In . SVG Version: 6.00 Build 0)  -->
<svg version="1.1" id="Layer_1" xmlns="http://www.w3.org/2000/svg" xmlns:xlink="http://www.w3.org/1999/xlink" x="0px" y="0px"
	 viewBox="0 0 958 134.8" style="enable-background:new 0 0 958 134.8;" xml:space="preserve">
<style type="text/css">
	.st0{fill:#232323;}
</style>
<g>
	<path class="st0" d="M70.1,59.7h2.6v38.6h-2.6c-1.4-12.1-6.6-16.1-14.8-16.1H39.6v40.2c0,4.3,1.6,5.3,8.7,5.3h5.9
		c24.9,0,32.6-11,38.8-33h3.2l-2.6,38.5c-12.7-0.3-27.1-0.3-39.4-0.3H0v-2.3c12.5-1.7,14.3-3.9,14.3-18.7V49.4
		c0-14.8-1.7-17-14.3-18.7v-2.3h53.2c11.5,0,25.2,0,37.1-0.3l2.5,38.5h-3.2c-6.1-22.5-13.7-33-44.1-33h-5.8v42.2h15.6
		C63.4,75.8,68.6,71.8,70.1,59.7z M47,18.6h-2.3L52.2,0h29L47,18.6z"/>
	<path class="st0" d="M162.5,128.5c19,0,30.1-11.7,36.3-26.1l4.2,1.4c-4.5,13.1-16.7,31-44.3,31c-29.1,0-56.1-19.3-56.1-54.3
		c0-35,27.2-54.9,57.8-54.9c13.4,0,26.4,2.9,33.3,6.1l4.2,33.3h-3c-5.2-14.6-15.9-33.7-34.6-33.7c-17.9,0-29.6,19.2-29.6,49.3
		C130.8,110,141.2,128.5,162.5,128.5z"/>
	<path class="st0" d="M305.8,111.9c0,14.8,1.7,17,14.3,18.7v2.3h-53.9v-2.3c12.5-1.7,14.3-3.9,14.3-18.7V82.2h-39.2v29.7
		c0,14.8,1.7,17,14.4,18.7v2.3h-54.1v-2.3c12.5-1.7,14.3-3.9,14.3-18.7V49.4c0-14.8-1.7-17-14.3-18.7v-2.3h54.1v2.3
		c-12.7,1.7-14.4,3.9-14.4,18.7v26.4h39.2V49.4c0-14.8-1.7-17-14.3-18.7v-2.3H320v2.3c-12.5,1.7-14.3,3.9-14.3,18.7V111.9z"/>
	<path class="st0" d="M377.8,134.8c-29.7,0-57.8-19-57.8-54.6c0-35.6,28.1-54.6,57.8-54.6c29.7,0,57.8,19,57.8,54.6
		C435.6,115.8,407.4,134.8,377.8,134.8z M377.8,129.2c19.8,0,29.7-19.5,29.7-49s-9.9-49-29.7-49c-19.8,0-29.7,19.5-29.7,49
		S358,129.2,377.8,129.2z"/>
	<path class="st0" d="M602.2,30.7c-12.5,1.7-14.3,3.9-14.3,18.7v62.4c0,14.8,1.7,17,14.3,18.7v2.3h-53.9v-2.3
		c12.5-1.7,14.3-3.9,14.3-18.7V42.2l-32.4,86.5h-7.2l-35-88.7v71.8c0,14.8,1.7,17,14.4,18.7v2.3h-35.6v-2.3
		c12.5-1.7,14.3-3.9,14.3-18.7V49.4c0-14.8-1.7-17-14.3-18.7v-2.3h44.5l24.9,65l24.2-65h41.8V30.7z"/>
	<path class="st0" d="M676.5,59.7h2.6v38.6h-2.6c-1.4-12.1-6.6-16.1-14.8-16.1h-15.6v40.2c0,4.3,1.6,5.3,8.7,5.3h5.9
		c24.9,0,32.6-11,38.8-33h3.2l-2.6,38.5c-12.7-0.3-27.1-0.3-39.4-0.3h-54.2v-2.3c12.5-1.7,14.3-3.9,14.3-18.7V49.4
		c0-14.8-1.7-17-14.3-18.7v-2.3h53.2c11.5,0,25.2,0,37.1-0.3l2.5,38.5H696c-6.1-22.5-13.7-33-44.1-33h-5.8v42.2h15.6
		C669.9,75.8,675.1,71.8,676.5,59.7z M653.5,18.6h-2.3L658.6,0h29L653.5,18.6z"/>
	<path class="st0" d="M842.5,30.7c-12.5,1.7-14.3,3.9-14.3,18.7v62.4c0,14.8,1.7,17,14.3,18.7v2.3h-53.9v-2.3
		c12.5-1.7,14.3-3.9,14.3-18.7V42.2l-32.4,86.5h-7.2l-35-88.7v71.8c0,14.8,1.7,17,14.4,18.7v2.3H707v-2.3
		c12.5-1.7,14.3-3.9,14.3-18.7V49.4c0-14.8-1.7-17-14.3-18.7v-2.3h44.5l24.9,65l24.2-65h41.8V30.7z"/>
	<path class="st0" d="M900.2,134.8c-29.7,0-57.8-19-57.8-54.6c0-35.6,28.1-54.6,57.8-54.6c29.7,0,57.8,19,57.8,54.6
		C958,115.8,929.9,134.8,900.2,134.8z M900.2,129.2c19.8,0,29.7-19.5,29.7-49s-9.9-49-29.7-49c-19.8,0-29.7,19.5-29.7,49
		S880.5,129.2,900.2,129.2z"/>
</g>
</svg>
